<svg xmlns="http://www.w3.org/2000/svg" viewBox="0 0 800 400" width="800" height="400">
  <!-- Background -->
  <rect width="800" height="400" fill="#f5f5f5" />
  
  <!-- Warehouse Floor -->
  <rect width="800" height="100" y="300" fill="#dddddd" />
  
  <!-- Warehouse Structure -->
  <rect width="800" height="300" fill="none" stroke="#888888" stroke-width="2" />
  <line x1="0" y1="100" x2="800" y2="100" stroke="#888888" stroke-width="2" />
  <line x1="0" y1="200" x2="800" y2="200" stroke="#888888" stroke-width="2" />
  
  <!-- Warehouse Columns -->
  <rect x="100" width="20" height="300" fill="#aaaaaa" />
  <rect x="300" width="20" height="300" fill="#aaaaaa" />
  <rect x="500" width="20" height="300" fill="#aaaaaa" />
  <rect x="700" width="20" height="300" fill="#aaaaaa" />
  
  <!-- Floor Markings -->
  <line x1="0" y1="350" x2="800" y2="350" stroke="#ffffff" stroke-width="4" stroke-dasharray="20,20" />
  
  <!-- AMR Robots -->
  <!-- Robot 1 -->
  <g transform="translate(200, 330)">
    <rect x="-40" y="-15" width="80" height="30" rx="5" fill="#2277aa" />
    <rect x="-35" y="-20" width="70" height="10" rx="2" fill="#3399cc" />
    <circle cx="-20" cy="15" r="10" fill="#111111" />
    <circle cx="20" cy="15" r="10" fill="#111111" />
    <rect x="-30" y="-10" width="60" height="15" fill="#3399cc" />
    <circle cx="0" cy="-15" r="5" fill="#55aadd" />
  </g>
  
  <!-- Robot 2 -->
  <g transform="translate(400, 330)">
    <rect x="-40" y="-15" width="80" height="30" rx="5" fill="#2277aa" />
    <rect x="-35" y="-20" width="70" height="10" rx="2" fill="#3399cc" />
    <circle cx="-20" cy="15" r="10" fill="#111111" />
    <circle cx="20" cy="15" r="10" fill="#111111" />
    <rect x="-30" y="-10" width="60" height="15" fill="#3399cc" />
    <circle cx="0" cy="-15" r="5" fill="#55aadd" />
  </g>
  
  <!-- Robot 3 -->
  <g transform="translate(600, 330)">
    <rect x="-40" y="-15" width="80" height="30" rx="5" fill="#2277aa" />
    <rect x="-35" y="-20" width="70" height="10" rx="2" fill="#3399cc" />
    <circle cx="-20" cy="15" r="10" fill="#111111" />
    <circle cx="20" cy="15" r="10" fill="#111111" />
    <rect x="-30" y="-10" width="60" height="15" fill="#3399cc" />
    <circle cx="0" cy="-15" r="5" fill="#55aadd" />
  </g>
  
  <!-- Shelving Units -->
  <g transform="translate(150, 150)">
    <rect width="100" height="150" fill="#999999" />
    <line x1="0" y1="50" x2="100" y2="50" stroke="#777777" stroke-width="2" />
    <line x1="0" y1="100" x2="100" y2="100" stroke="#777777" stroke-width="2" />
  </g>
  
  <g transform="translate(350, 150)">
    <rect width="100" height="150" fill="#999999" />
    <line x1="0" y1="50" x2="100" y2="50" stroke="#777777" stroke-width="2" />
    <line x1="0" y1="100" x2="100" y2="100" stroke="#777777" stroke-width="2" />
  </g>
  
  <g transform="translate(550, 150)">
    <rect width="100" height="150" fill="#999999" />
    <line x1="0" y1="50" x2="100" y2="50" stroke="#777777" stroke-width="2" />
    <line x1="0" y1="100" x2="100" y2="100" stroke="#777777" stroke-width="2" />
  </g>
  
  <!-- Labels -->
  <text x="400" y="380" font-family="Arial, sans-serif" font-size="20" font-weight="bold" text-anchor="middle" fill="#333333">WAREHOUSE AMR ROBOTS</text>
</svg>